<?xml version="1.0" encoding="UTF-8"?>
<svg width="300px" height="300px" viewBox="0 0 300 300" version="1.1" xmlns="http://www.w3.org/2000/svg" xmlns:xlink="http://www.w3.org/1999/xlink">
    <!-- Generator: Sketch 61 (89581) - https://sketch.com -->
    <title>Artboard</title>
    <desc>Created with Sketch.</desc>
    <g id="Artboard" stroke="none" stroke-width="1" fill="none" fill-rule="evenodd">
        <rect id="Rectangle" fill="#6584FF" transform="translate(116.771535, 225.657991) rotate(-22.000000) translate(-116.771535, -225.657991) " x="112.771535" y="212.657991" width="8" height="26"></rect>
        <g id="hoof" transform="translate(46.000000, 40.000000)" fill="#000000" fill-rule="nonzero">
            <path d="M92.366243,210.15825 C93.510206,208.90657 93.747008,208.45301 94.077962,206.87971 C94.673174,204.05017 95.01708,199.21194 95.024792,193.55923 C95.028692,190.71227 95.26642,185.67239 95.55524,182.31444 C96.315946,173.47011 96.339295,173.78719 94.729636,171.10318 L93.377727,168.84895 L93.582633,163.27857 C93.859432,155.75374 93.803648,150.56982 93.420293,148.19343 L93.101666,146.21827 L91.879627,145.83488 C91.207506,145.62402 89.783502,145.24696 88.715176,144.99698 C87.646849,144.74699 86.065913,144.20006 85.201988,143.78156 L83.631209,143.02067 L82.619162,143.53698 C82.062537,143.82095 79.634644,145.51829 77.223845,147.30886 C74.813046,149.09943 72.372855,150.84485 71.801194,151.18758 C69.857625,152.35281 69.094046,153.25927 69.094046,154.40128 C69.094046,155.75946 68.664262,157.77898 67.855375,160.22173 C67.071608,162.58861 67.12059,163.09517 68.546369,167.36806 C69.968171,171.62902 74.431927,181.65298 74.907569,181.65298 C75.411708,181.65298 75.973212,183.23488 75.973212,184.65518 C75.973212,186.08267 75.990142,186.11313 77.781568,187.90946 C79.689566,189.82269 79.782657,190.03148 80.097421,193.10376 C80.239571,194.49123 80.177061,194.96032 79.735019,195.82347 C77.8685,199.46808 74.781204,201.37712 71.823948,200.71532 L70.449932,200.40783 L69.866531,198.63718 C69.54566,197.66332 68.77145,195.73543 68.146062,194.35298 C67.520677,192.97053 66.395364,189.75585 65.645369,187.20923 C64.895373,184.66262 63.47002,180.01918 62.477917,176.89048 C60.162006,169.58701 59.119569,166.17959 58.365993,163.44979 C57.755017,161.23655 57.344667,160.54555 55.349156,158.36965 L54.257241,157.17902 L54.420024,155.34843 C54.577914,153.57284 55.364306,150.95037 55.966217,150.19216 C56.128761,149.9874 57.750035,148.84756 59.569046,147.65918 C63.483416,145.10186 66.629208,142.61278 67.878505,141.08439 C69.25401,139.40158 72.904694,131.84242 72.712231,131.07559 C72.626151,130.7326 72.030079,129.61947 71.387639,128.60196 C70.313965,126.90145 70.196549,126.54139 69.934807,124.14674 C69.757467,122.5243 69.447243,121.15245 69.112424,120.51009 C68.59805,119.52324 67.627381,116.01168 66.984636,112.81246 C66.799574,111.89133 66.382622,110.93111 65.908827,110.33491 C64.375802,108.40585 63.180058,104.98154 62.588418,100.8261 C62.430006,99.71349 62.156036,99.23342 60.841768,97.76549 L59.283002,96.02448 L55.794952,95.72674 C53.876524,95.56299 52.260481,95.47543 52.203741,95.53217 C52.147001,95.58887 52.30832,96.74298 52.562228,98.09676 C53.168611,101.32989 53.172788,105.95184 52.572128,109.02485 C51.930786,112.30587 52.258319,116.33002 53.650964,122.2797 C54.168002,124.48861 54.02119,125.32906 52.927204,126.42305 C52.209911,127.14034 52.018643,127.20126 50.94571,127.0542 C50.292549,126.9647 49.536031,126.77256 49.264561,126.62727 C48.99309,126.48198 47.913527,124.72435 46.865531,122.72141 C45.18399,119.50765 44.871549,118.67549 44.206669,115.63978 C43.792292,113.74782 43.371949,111.39635 43.272576,110.41429 L43.0919,108.62872 L42.077017,108.35544 C41.071108,108.08458 41.055183,108.05942 40.276003,105.5108 C39.843632,104.09655 39.415888,102.47962 39.325464,101.91762 L39.161052,100.89579 L38.566234,101.4546 C37.748156,102.22314 36.786925,102.16066 35.969425,101.28579 C35.32416,100.59525 35.282956,100.37387 35.16042,96.93928 C35.03447,93.40902 35.00867,93.27938 34.10741,91.64761 L33.183516,89.97485 L31.393488,90.01785 C30.408974,90.04155 28.219705,90.24565 26.528449,90.47149 C24.837195,90.69733 22.845915,90.93496 22.103385,90.99956 C21.360854,91.06416 20.142988,91.42631 19.397014,91.80432 C15.312589,93.87405 12.704621,94.18909 10.471,92.88256 C9.3214218,92.21013 8.8292308,92.10165 6.3397278,91.97205 C3.2203608,91.80966 2.5823148,91.53147 1.3998198,89.81822 C0.83918281,89.00595 0.78999281,88.70573 0.90391181,86.79153 C1.1379138,82.85954 3.0504978,78.52355 6.6446868,73.77669 C8.0840988,71.87566 8.9528918,71.05697 11.430484,69.266868 C14.720108,66.890068 16.272003,66.059694 20.200785,64.574132 C21.613282,64.040034 23.544077,63.135551 24.49144,62.56417 C25.974107,61.669931 35.232534,55.221865 35.836951,54.662544 C35.953924,54.554301 34.82283,53.95735 33.32341,53.33599 C27.982075,51.122533 24.923003,49.408163 21.73434,46.841223 C18.877104,44.541086 17.724762,43.461782 14.686858,40.240411 C13.199294,38.663012 11.669262,35.886954 10.891399,33.354007 C10.229066,31.197264 10.141722,27.386923 10.70035,25.019632 C11.039872,23.580847 11.053989,23.565273 11.951287,23.639783 C13.679381,23.783274 14.502527,24.775006 15.512252,27.930049 C16.077502,29.696265 16.846911,31.019935 17.516652,31.378369 C17.935444,31.6025 18.124499,31.479305 18.702802,30.605431 C19.519003,29.372068 20.634968,28.806566 21.421746,29.227635 C21.934516,29.502063 21.954476,29.418166 22.041064,26.624547 C22.122304,24.003378 22.189176,23.675538 22.768162,23.059898 C23.118857,22.686999 23.809579,22.30615 24.303099,22.213565 C25.369491,22.013508 25.340045,21.98176 27.536284,25.699495 C29.572107,29.145685 30.927409,30.932623 32.475769,32.212116 L33.726076,33.245306 L34.461827,32.439761 C35.324509,31.495246 36.043199,31.429116 37.420834,32.167486 L38.4158,32.700754 L39.426471,31.638319 C40.323793,30.695038 40.575268,30.575882 41.668733,30.575882 C42.346109,30.575882 42.900326,30.527782 42.900326,30.469001 C42.900326,30.410211 42.396732,29.312598 41.781223,28.029847 C40.434015,25.222189 40.100286,22.65208 40.955737,21.672629 C41.945972,20.538855 43.17843,21.425474 47.234061,26.189196 C48.441934,27.607956 50.615198,29.034621 50.993012,28.656807 C51.084752,28.565067 50.836011,27.26269 50.440258,25.762633 C49.108626,20.715248 49.276319,18.149747 51.138732,15.076776 C51.946579,13.743839 52.079172,13.642549 53.016223,13.642549 C53.926929,13.642549 54.099538,13.760902 54.800258,14.865823 C55.226936,15.538624 56.25213,18.187765 57.078464,20.752803 C58.513214,25.206428 59.542481,27.718859 60.064379,28.041412 C60.196808,28.123262 60.633651,27.417308 61.035143,26.472637 C61.529152,25.310277 61.911822,24.755049 62.218921,24.755049 C62.938974,24.755049 63.927455,25.682162 64.455201,26.852491 C64.965137,27.983331 65.224363,28.153982 65.5752,27.589803 C66.018367,26.877153 67.344276,26.077966 68.08345,26.077966 C69.04756,26.077966 69.997774,26.996258 70.679608,28.586914 C70.961389,29.244285 71.299654,29.782132 71.431305,29.782132 C71.712004,29.782132 71.998575,28.245887 71.998892,26.739424 C71.999014,26.157341 71.410424,23.501144 70.690914,20.83676 C68.940134,14.353545 68.215872,9.99337 68.353212,6.763382 C68.487705,3.60033 69.034506,2.265465 70.195696,2.265465 C72.052954,2.265465 72.268206,2.57789 75.015865,9.261694 C77.087131,14.300141 77.675102,16.03547 78.090868,18.337236 C78.997196,23.35484 79.858708,25.483082 81.281291,26.218729 L82.027741,26.604733 L83.122074,24.952285 C85.592639,21.221724 88.01446,20.866542 90.491407,23.871507 C91.250994,24.793019 91.263898,24.797173 92.071078,24.379764 C94.28939,23.232628 96.375079,19.829023 99.866715,11.658174 C102.98881,4.352088 103.92516,2.502024 104.7567,1.996334 C105.19237,1.731382 105.62296,1.394663 105.71356,1.248071 C105.91864,0.916251 107.4105,1.310161 107.93494,1.834604 C108.61151,2.511176 108.38619,6.720583 107.487,10.202965 C107.05488,11.876455 106.41093,14.376767 106.05598,15.759215 C104.62681,21.325573 104.96414,22.678623 106.74791,18.534618 C108.22241,15.109102 108.56663,14.700882 109.98067,14.700882 C111.01331,14.700882 111.21421,14.804575 111.77205,15.625516 C112.4327,16.597754 112.75032,16.593299 112.75032,15.611786 C112.75032,14.483116 114.07098,9.95214 115.08657,7.596438 C117.09753,2.931987 119.76126,0.1488 122.21455,0.1488 C123.67978,0.1488 125.18574,0.82992 125.18574,1.492617 C125.18574,2.503595 124.3134,4.48384 122.68532,7.168654 C121.13794,9.720399 120.12212,12.371291 120.53388,12.783054 C120.62748,12.876704 121.23176,12.350201 121.8766,11.613046 C123.78964,9.426164 125.35614,8.95774 127.50084,9.931259 C128.82261,10.531231 128.87923,10.867587 127.96972,12.716509 C127.6118,13.444113 127.31523,14.296757 127.31068,14.611272 C127.30268,15.172493 127.33068,15.17652 128.82376,14.828053 C131.0306,14.313002 133.92234,13.235391 137.09043,11.747473 C139.24226,10.736849 140.10547,10.461031 140.92689,10.521639 C141.93436,10.595969 141.99071,10.646671 142.06619,11.546648 C142.10989,12.067391 141.8834,13.198485 141.56293,14.06019 C140.83133,16.02737 138.23953,18.673222 134.10055,21.678206 C128.55328,25.705641 105.37743,36.647887 93.627635,40.787092 C83.165717,44.472603 77.580164,46.922256 73.093759,49.792617 C71.676545,50.699339 71.26021,51.087742 71.538533,51.243497 C71.74757,51.36048 73.336909,51.564394 75.0704,51.696641 C78.776541,51.979377 79.67741,52.262418 79.67741,53.1441 C79.67741,53.874514 77.452854,57.216485 75.905394,58.810832 C74.948084,59.797151 74.879316,59.947585 75.310182,60.112923 C76.23644,60.468362 78.766392,59.67626 82.587827,57.834363 C88.138534,55.158976 92.567691,54.238832 96.628339,54.917486 C101.43595,55.720983 104.41847,57.764482 110.39764,64.35166 C113.4966,67.765748 114.02475,68.229838 115.74081,69.046788 C118.28312,70.25708 120.32092,70.85284 125.77185,71.97942 C128.89875,72.62567 130.9727,73.21228 132.32949,73.83421 C136.69609,75.83579 140.89641,76.06928 144.90839,74.53343 C148.59322,73.12282 157.21906,71.93611 161.6876,72.22501 C165.07177,72.4438 167.28852,72.96243 169.90032,74.14646 C171.49765,74.87058 172.37496,75.52618 174.39824,77.50765 C175.78069,78.86153 179.23668,82.05632 182.07822,84.60718 L187.24467,89.24511 L188.74665,92.3881 C189.57273,94.11675 190.61525,96.65511 191.06336,98.0289 C191.92438,100.6686 193.18366,106.44259 193.18366,107.75078 C193.18366,108.17765 192.76383,110.15037 192.2507,112.1346 L191.31775,115.74229 L191.59157,121.51169 C191.86187,127.20699 192.30843,132.88834 192.51164,133.21714 C192.56914,133.31004 193.39266,136.30345 194.34179,139.86903 C197.10235,150.23957 197.12391,150.29552 199.63641,153.61418 C200.83957,155.20337 202.225,157.31043 202.71515,158.29653 L203.60633,160.08943 L203.82458,166.30714 C204.21136,177.32658 204.93141,184.91569 206.02113,189.45818 C207.56166,195.87981 208.1976,201.44463 207.44416,201.91028 C207.28379,202.00938 206.96662,202.52244 206.73933,203.05038 C206.41552,203.80252 206.33763,204.88219 206.37942,208.03902 C206.44432,212.94036 206.32032,213.28057 204.10799,214.27342 C202.14921,215.15247 199.72734,215.78588 198.35359,215.77841 C196.25734,215.76701 193.97741,214.16841 193.97741,212.71 C193.97741,212.36811 194.61631,210.86612 195.39719,209.37224 C197.4541,205.43723 198.0629,202.44487 197.86074,197.26339 C197.4347,186.34352 194.45768,173.86419 190.30517,165.59128 C189.14842,163.28674 188.76217,162.831 183.12943,157.12462 C179.85518,153.80756 176.19133,150.0518 174.98753,148.77849 L172.79882,146.46339 L168.72579,146.46339 C165.87525,146.46339 164.6221,146.37139 164.55063,146.15702 C164.48633,145.96403 164.18557,145.91663 163.73805,146.02896 C162.23563,146.40604 161.43366,149.37593 161.43366,154.56263 C161.43366,159.49102 161.79522,161.49341 163.17452,164.20386 C163.81822,165.46878 164.41929,167.04666 164.51025,167.71027 C164.67108,168.88368 164.58465,169.07539 161.36421,174.68958 C153.65262,188.13311 151.21068,193.3678 150.29583,198.41639 C150.00951,199.99643 149.59439,201.72284 149.37334,202.25285 C148.91175,203.35957 147.59927,204.81333 146.57897,205.348 C146.03493,205.6331 145.75044,206.14256 145.29878,207.64053 C144.6561,209.77207 144.12475,210.48373 142.43301,211.47876 C141.33828,212.12264 141.17851,212.14244 138.51547,211.96405 C135.11538,211.73629 133.33324,211.23986 132.60861,210.31865 C131.95935,209.49325 131.92902,208.83114 132.46962,207.28468 C133.40194,204.61765 135.61659,201.66856 137.85664,200.1112 C138.85601,199.41639 139.23,198.85652 140.53558,196.10071 C143.41141,190.03046 146.37908,181.44259 149.27688,170.80505 C150.05457,167.95024 150.09504,167.58101 149.93222,164.82578 C149.72374,161.29788 149.38584,159.73682 147.95147,155.67504 C147.13826,153.37222 146.78097,151.84228 146.55093,149.67781 L146.2421,146.77206 L145.44498,146.61263 C145.00657,146.52493 143.62965,146.53013 142.38517,146.62403 C140.18364,146.79022 140.09887,146.77499 139.24988,146.06061 C138.57165,145.48992 138.41207,145.1878 138.53343,144.70426 C138.67037,144.15866 138.59553,144.08215 137.92499,144.08215 C135.44902,144.08215 128.95888,144.9798 126.50865,145.66115 C119.47911,147.61588 119.43025,147.62463 115.45481,147.6397 L111.67701,147.654 L111.40503,148.71233 C111.25544,149.29442 111.02648,150.12786 110.89622,150.56442 C110.50353,151.88056 110.13719,154.32628 109.72708,158.36963 C109.4175,161.42189 109.1135,162.90915 108.23983,165.64567 C106.21586,171.98517 106.20464,172.06936 106.01883,182.31442 C105.92143,187.68562 105.68092,193.0838 105.44623,195.16777 C105.05504,198.64126 105.05977,198.83377 105.58866,200.9588 C106.25857,203.65041 106.29573,205.64062 105.69273,206.53107 C105.44907,206.89087 104.78062,207.70338 104.20727,208.33664 C103.27915,209.36175 103.18262,209.59389 103.32718,210.45331 C103.87249,213.69535 103.85441,214.15198 103.1379,215.2347 C102.11275,216.7838 99.385095,218.02318 95.816994,218.56113 C94.289025,218.7915 92.728663,219.02842 92.349523,219.08762 C91.970383,219.14682 91.152498,218.94408 90.532002,218.63709 C87.796801,217.28385 88.399329,214.49868 92.366243,210.15825 Z M100.82532,213.96712 C100.97879,213.68037 100.91342,212.88882 100.6429,211.75819 C100.06573,209.34592 100.40075,208.25202 102.17486,206.75607 C103.74639,205.43094 103.79737,205.03594 102.88783,201.23215 C102.45858,199.43702 102.33898,198.3783 102.46937,197.52798 C102.79709,195.39072 103.21051,186.1784 103.32428,178.47798 L103.43568,170.93736 L104.79555,167.01217 C106.31943,162.61358 106.83263,159.80341 107.0982,154.40331 L107.27398,150.82902 L108.93539,147.32329 C109.84916,145.39514 110.70318,143.81756 110.83321,143.81756 C110.96323,143.81756 112.05785,144.24582 113.26569,144.76924 L115.46177,145.72092 L117.57605,145.41178 C118.73891,145.24174 121.37328,144.62421 123.43021,144.03947 C127.70201,142.82511 134.40178,141.74991 139.14248,141.51793 L142.38363,141.35933 L142.38363,142.00041 C142.38363,142.353 142.2024,142.90022 141.98091,143.21644 C141.59482,143.76766 141.61393,143.79685 142.44393,143.92367 C142.92009,143.99647 144.26217,144.11239 145.42633,144.18136 C147.83037,144.3238 149.13685,144.71012 149.40348,145.35741 C149.50419,145.6019 149.68275,147.52835 149.80027,149.6384 C150.03071,153.77577 150.15299,154.36797 151.19338,156.38527 C152.4923,158.90385 153.17009,163.89958 152.71769,167.62034 C152.23994,171.54953 151.58812,173.72795 146.93545,186.94465 C146.34633,188.61814 145.43086,191.35658 144.90107,193.03006 C144.37127,194.70355 143.40843,197.14434 142.76141,198.45402 C141.7646,200.47176 141.38337,200.9716 140.26415,201.72829 C137.97375,203.2768 136.61549,204.64356 135.8867,206.13315 C134.9883,207.96942 135.1359,208.74239 136.46895,209.18234 C137.72311,209.59625 140.28931,209.36005 141.36327,208.73185 C142.04729,208.33174 142.28286,207.93316 142.66824,206.52382 C143.08611,204.99567 143.31789,204.64187 144.74825,203.34882 C146.49286,201.77168 146.78655,201.11596 147.39976,197.42886 C148.18107,192.73101 153.26613,182.04789 159.4863,172.03644 C160.86818,169.81228 161.43363,168.65149 161.43363,168.03881 C161.43363,167.56394 161.01047,166.25955 160.49327,165.14015 C157.61316,158.90653 157.57747,151.96741 160.39188,145.42515 C161.30688,143.29817 162.53757,142.89945 165.79925,143.6733 C167.04294,143.96838 167.96868,143.99549 170.07366,143.79848 C173.69806,143.45928 174.7481,143.91989 176.48541,146.61109 C176.86664,147.20164 179.08306,149.38717 181.41078,151.46783 C183.7385,153.54848 186.17878,155.84887 186.83363,156.57981 C187.48847,157.31074 188.5897,158.49429 189.2808,159.20992 C191.80745,161.82625 194.8187,167.83171 196.48782,173.58319 C197.49301,177.0469 198.55382,182.64029 199.78713,190.97976 C200.78122,197.70169 200.85003,198.50661 200.60132,200.50476 C200.05789,204.87084 199.25373,208.17053 198.44755,209.34227 C197.43135,210.81926 197.11608,211.71102 197.32118,212.52821 C197.48629,213.18606 197.53847,213.20081 199.26474,213.07729 C200.37218,212.99809 201.58947,212.69819 202.50478,212.27915 L203.97092,211.60793 L203.74817,210.45493 C203.1432,207.32346 203.65987,201.71429 204.59954,201.21137 C205.61471,200.66807 205.15031,196.25449 203.36115,189.44177 C202.59283,186.51618 202.37246,184.97309 201.92535,179.3876 C201.63485,175.75861 201.27341,170.11053 201.12216,166.83631 C200.9709,163.5621 200.72174,160.40223 200.56846,159.81438 C200.40348,159.18165 199.54177,157.79577 198.45643,156.41763 C195.8254,153.07678 194.43506,150.09774 193.19334,145.14048 C192.62835,142.88491 191.85518,140.14647 191.47518,139.05506 C188.48184,130.45775 187.72334,119.52092 189.53984,111.14941 C190.64029,106.07787 189.82232,101.28932 186.56185,93.71566 L185.43858,91.10647 L181.07481,86.83649 C178.67474,84.48801 176.57761,82.43913 176.41452,82.28342 C176.25144,82.12772 175.10597,81.18865 173.86904,80.19661 C172.63212,79.20457 171.39091,78.15374 171.11081,77.86143 C170.8307,77.56913 169.75659,76.93959 168.7239,76.46245 C164.12808,74.33905 156.22865,74.70901 144.89717,77.57834 C141.64646,78.40148 140.95008,78.49526 139.20863,78.34438 C136.60894,78.11914 133.71843,77.37106 129.82637,75.9162 C127.87909,75.1883 125.50207,74.53501 123.64683,74.21784 C119.83943,73.56693 116.31431,72.39691 113.95548,71.00116 C111.89931,69.784508 109.123,67.130418 107.72321,65.043241 C107.21389,64.28381 106.71637,63.659385 106.61763,63.655633 C106.51883,63.651833 105.44732,62.665568 104.23638,61.463825 C99.830845,57.091752 95.386925,56.097908 89.202379,58.101598 C88.256494,58.408052 85.637119,59.543461 83.381546,60.624731 C79.475264,62.497314 79.191715,62.590672 77.410868,62.590577 C73.970115,62.590392 71.229598,61.811559 70.039569,60.495712 C69.396107,59.784221 69.722545,59.394823 71.28733,59.00729 C72.224186,58.775269 72.664301,58.405969 74.054983,56.684955 C74.964488,55.559415 75.708629,54.522706 75.708629,54.381162 C75.708629,54.239618 75.357302,54.12381 74.927902,54.12381 C72.872095,54.12381 68.556354,52.848394 67.374254,51.891507 C66.245338,50.97767 66.587383,50.626817 70.066598,49.129812 C71.69291,48.430061 74.121245,47.245394 75.462897,46.497224 C76.804552,45.749056 81.784246,43.574525 86.528886,41.664937 C105.55122,34.008962 110.56986,31.864667 118.57112,27.974387 C126.49463,24.121914 132.83154,20.489266 134.53832,18.821166 C135.95029,17.441192 138.82723,14.090609 139.20293,13.388612 C139.36182,13.09172 139.38721,12.848809 139.25933,12.848809 C138.78473,12.848809 136.10752,13.860769 134.71411,14.566865 C131.13142,16.382354 128.21784,16.993893 125.91329,16.414085 C125.28055,16.254893 125.18569,16.100956 125.18569,15.233348 C125.18569,14.684625 125.49556,13.558815 125.8743,12.731545 C126.25304,11.904278 126.49914,11.163648 126.42119,11.085702 C126.20639,10.8709 124.32583,11.534869 123.7692,12.022041 C123.49946,12.258129 122.97396,12.987215 122.60143,13.642236 C121.47074,15.63032 120.72336,16.288392 119.59615,16.288392 C118.61966,16.288392 118.60057,16.268652 118.4214,15.073891 C117.99242,12.213229 118.84855,9.333732 121.18728,5.771218 C122.82652,3.27421 123.51991,1.736308 123.0065,1.736308 C122.21005,1.736308 120.3114,2.972788 119.52363,4.004507 C119.03917,4.638986 118.02371,6.52778 117.26707,8.201831 C115.99327,11.020056 115.86321,11.499656 115.51165,14.675233 C115.30281,16.561551 115.00992,18.425855 114.86078,18.818132 C114.61341,19.468758 114.49607,19.518812 113.52388,19.388415 C112.72456,19.281203 112.1181,18.927383 111.09779,17.973007 L109.73742,16.700541 L109.30311,18.412697 C108.77614,20.490147 108.28979,21.452289 107.21675,22.540155 C106.46471,23.302586 104.90483,24.169618 104.71487,23.930776 C102.39457,21.013329 102.40099,20.154008 104.81157,10.996725 C105.52027,8.30459 106.17033,5.566152 106.25615,4.911308 L106.41219,3.720683 L105.94319,4.358422 C105.45898,5.016843 103.14467,10.00349 99.792505,17.611309 C97.720514,22.313722 97.239919,23.091973 95.100146,25.209894 C92.792604,27.493872 91.328104,27.505358 89.389872,25.254684 C88.729945,24.488371 88.054898,23.961519 87.732868,23.961443 C87.118315,23.961297 85.950053,25.130287 84.86968,26.826412 C84.426468,27.522232 83.779581,28.122381 83.221392,28.355606 C82.390574,28.702744 82.195959,28.692309 81.188408,28.246618 C79.044065,27.29803 77.298516,24.776387 76.39055,21.315476 C75.148567,16.581378 71.040228,5.177 70.576527,5.176268 C69.809783,5.174968 71.653667,15.713434 73.300148,20.742642 C74.14228,23.314942 74.457523,25.614632 74.339119,28.321862 C74.233812,30.729599 74.209206,30.810477 73.332851,31.629117 C72.577336,32.334869 72.296425,32.442366 71.565826,32.305307 C70.409218,32.088325 69.298209,31.115007 68.70465,29.798729 C68.149203,28.566969 68.033739,28.516918 67.498809,29.276034 C66.955299,30.047324 65.205012,30.901436 64.576645,30.702001 C64.291437,30.611481 63.80472,30.040773 63.495047,29.433763 C62.982276,28.428653 62.905896,28.375186 62.639588,28.834947 C62.478758,29.112606 62.036867,29.698973 61.657611,30.137986 C61.000846,30.898226 60.927723,30.919486 60.120149,30.584978 C59.653802,30.391811 58.988661,29.861965 58.642054,29.40754 C58.29545,28.953118 57.058562,25.920649 55.893422,22.668724 C54.728279,19.416799 53.71497,16.696123 53.641627,16.622778 C53.568287,16.549428 53.220143,16.561738 52.867986,16.650128 C51.208537,17.066625 51.273792,20.115964 53.077882,26.458582 C53.737605,28.777964 54.277379,30.703496 54.277379,30.737543 C54.277379,30.771583 53.845394,30.94201 53.31741,31.116259 C51.391322,31.751926 48.603585,30.270045 45.292496,26.850443 C44.176608,25.697984 43.19225,24.755062 43.105032,24.755062 C42.754359,24.755062 43.25054,26.453872 44.205051,28.521271 C44.760382,29.724075 45.287681,31.101895 45.376824,31.583093 C45.525573,32.386037 45.465894,32.488505 44.651271,32.828875 C44.121675,33.050154 43.376974,33.137007 42.80504,33.044193 C41.619791,32.851855 41.142488,33.211947 40.775329,34.575467 C40.623156,35.140598 40.354411,35.603024 40.178119,35.603082 C40.001827,35.603138 39.114139,35.221929 38.205478,34.755947 L36.553372,33.908712 L35.656252,34.888138 C35.162839,35.426822 34.654003,35.867562 34.525508,35.867562 C34.176395,35.867562 32.368296,34.618007 30.777261,33.277196 C29.143586,31.90045 27.876962,30.253995 26.107598,27.207207 C25.411919,26.009272 24.722193,25.10364 24.574873,25.194688 C24.398984,25.303392 24.371457,26.936906 24.494703,29.952437 L24.682382,34.544646 L23.975298,34.544646 C23.270045,34.544646 21.897784,33.409586 21.256358,32.295687 C20.966061,31.791558 20.910505,31.81459 20.082216,32.78242 C19.284813,33.714163 19.133483,33.783445 18.255459,33.618726 C16.061013,33.207044 14.901064,31.884136 13.653678,28.370445 C13.230989,27.179796 12.784075,26.342562 12.571198,26.342562 C12.09727,26.342562 12.107802,27.27739 12.614778,30.210508 C13.126421,33.170638 14.569716,36.177212 16.677166,38.672995 C18.967589,41.385469 22.831306,44.793075 24.642806,45.698291 C25.519233,46.136248 26.364192,46.733524 26.520492,47.025573 C27.073468,48.058822 37.25486,52.536313 39.051392,52.536313 C39.510208,52.536313 39.611911,52.694451 39.841191,53.764352 C40.016531,54.582555 39.960283,54.638504 36.234285,57.351975 C27.872666,63.441358 23.595885,65.996159 19.502009,67.347258 C17.428901,68.031438 14.11038,70.12042 11.390885,72.45313 C7.6577768,75.65529 5.1048288,79.81135 3.8574718,84.71711 C3.0406958,87.92942 3.0861438,88.46091 4.2441158,89.2387 C5.2129108,89.88943 6.3755498,90.00378 7.6182748,89.57056 C8.2752218,89.34154 8.6756278,89.42419 10.15167,90.09346 C13.31494,91.52775 13.992288,91.48204 18.328996,89.54158 C20.461953,88.58719 20.779162,88.51965 23.128517,88.51965 C24.610481,88.51965 26.700869,88.30221 28.215926,87.99048 C29.630412,87.69944 31.502993,87.46131 32.377221,87.46131 C33.863129,87.46131 34.030679,87.52601 34.948064,88.4535 C35.523937,89.03574 36.302982,90.32025 36.833556,91.56235 C37.623046,93.41059 37.745374,93.99778 37.798161,96.19256 C37.841881,98.01018 37.947629,98.68321 38.180111,98.62342 C39.735149,98.22349 39.982569,98.26121 40.734102,99.01274 C41.500655,99.77929 41.540906,99.92478 41.985237,103.53475 C42.131917,104.72646 42.237258,104.92433 42.726692,104.92742 C44.68323,104.93982 44.911164,105.46017 46.086387,112.59723 L46.892303,117.49152 L48.822026,121.04905 C49.883375,123.0057 50.890173,124.65273 51.059358,124.70912 C51.572851,124.88029 51.41839,123.36739 50.53003,119.52448 L49.69309,115.90402 L50.034881,112.19985 C50.648309,105.55179 50.684203,101.81737 50.151898,100.02496 C49.451303,97.66587 49.650095,92.88755 50.461794,92.57607 C50.668357,92.49677 51.61262,92.74231 52.560157,93.12163 C54.017307,93.70497 54.693431,93.81131 56.945033,93.81131 C59.937103,93.81131 60.847881,94.16745 62.93624,96.15407 C64.768381,97.89694 65.311817,98.98465 65.50569,101.2969 C65.73582,104.04158 66.484035,106.35986 67.705767,108.11365 C69.28719,110.38377 72.782648,122.16197 72.794742,125.26132 C72.797342,125.92928 73.137766,126.58401 74.156364,127.88015 L75.51451,129.60836 L75.369683,131.48744 C75.024187,135.97011 72.385884,140.25661 66.803511,145.40506 C65.62012,146.49647 63.954735,147.83028 63.102657,148.36909 C62.25058,148.9079 60.872622,149.88892 60.040528,150.54914 C58.661443,151.64336 58.477084,151.91595 57.956128,153.63108 C57.262131,155.91591 57.420153,156.6601 59.233692,159.6476 C60.113175,161.0964 60.716946,162.60305 61.46939,165.22655 C62.036344,167.20333 63.575288,172.15444 64.889262,176.22902 C67.852254,185.41715 67.593975,184.56451 68.656166,188.66444 C69.229338,190.87682 69.833456,192.55424 70.34937,193.36588 C70.79052,194.05989 71.432685,195.51628 71.776403,196.60227 C72.465298,198.77889 72.585943,198.85142 74.255697,198.09287 C76.590854,197.03203 77.566306,194.96902 77.183068,191.90169 C76.97246,190.21603 76.970515,190.21306 75.269842,188.98169 C73.768856,187.8949 73.327385,187.02524 73.327385,185.15522 C73.327385,184.21676 73.085551,183.58579 72.150979,182.08584 C71.503956,181.04741 70.439461,179.06668 69.785432,177.68423 C68.361905,174.67526 65.559396,167.27613 64.966152,164.96048 C64.341032,162.5204 64.547401,160.24156 65.595646,158.00921 C66.315146,156.47696 66.448218,155.8886 66.448218,154.23966 C66.448218,152.37795 66.491948,152.23735 67.375017,151.2599 C67.884755,150.69568 69.676368,149.31478 71.356379,148.19123 C73.036391,147.06768 75.447068,145.26537 76.713438,144.18609 C81.006744,140.52706 82.931554,140.0618 86.643298,141.78588 C88.066122,142.44677 89.370025,142.83011 90.80888,143.01052 C93.357249,143.33006 94.265746,143.77156 95.29302,145.18967 L96.081552,146.27821 L96.081552,157.31435 L96.081552,168.3505 L97.470615,170.43767 L98.859685,172.52486 L98.823485,174.64152 C98.746585,179.1347 97.907327,199.67781 97.670953,202.85212 C97.324362,207.50654 97.084351,208.08933 93.193497,213.72409 C91.350875,216.39259 91.445416,216.69841 94.032977,216.43972 C95.086945,216.33436 96.597285,216.07977 97.389288,215.87399 C98.998395,215.45589 100.46379,214.64266 100.82532,213.96712 Z" id="path21"></path>
        </g>
    </g>
</svg>